HIERARCHY
ROOT Hips
{
	OFFSET 0.000000 83.214638 0.000000
	CHANNELS 6 Xposition Yposition Zposition Xrotation Yrotation Zrotation
	JOINT Pelvis
	{
		OFFSET 0.000000 0.000000 0.000000
		CHANNELS 3 Xrotation Yrotation Zrotation
		JOINT LeftUpLeg
		{
			OFFSET 8.479700 -4.795502 -0.379100
			CHANNELS 3 Xrotation Yrotation Zrotation
			JOINT LeftLeg
			{
				OFFSET 0.024144 -32.555107 0.112900
				CHANNELS 3 Xrotation Yrotation Zrotation
				JOINT LeftFoot
				{
					OFFSET -0.024144 -32.638630 -3.012600
					CHANNELS 3 Xrotation Yrotation Zrotation
					JOINT LeftToeBase
					{
						OFFSET 0.970200 -13.225400 11.864200
						CHANNELS 3 Xrotation Yrotation Zrotation
						End Site
						{
							OFFSET 0.000000 12.319262 0.000000
						}
					}
					JOINT LFootTongue
					{
						OFFSET 1.142400 -1.059800 6.665200
						CHANNELS 3 Xrotation Yrotation Zrotation
						End Site
						{
							OFFSET 0.000000 12.319262 0.000000
						}
					}
				}
				JOINT LeftPantLeg
				{
					OFFSET 0.918482 -16.533964 -2.284700
					CHANNELS 3 Xrotation Yrotation Zrotation
					End Site
					{
						OFFSET 0.350399 24.744368 0.000000
					}
				}
			}
		}
		JOINT RightUpLeg
		{
			OFFSET -8.479700 -4.795502 -0.379100
			CHANNELS 3 Xrotation Yrotation Zrotation
			JOINT RightLeg
			{
				OFFSET -0.023144 -32.555092 0.112900
				CHANNELS 3 Xrotation Yrotation Zrotation
				JOINT RightFoot
				{
					OFFSET 0.023144 -32.638641 -3.012700
					CHANNELS 3 Xrotation Yrotation Zrotation
					JOINT RightToeBase
					{
						OFFSET -0.970200 -13.225400 11.864200
						CHANNELS 3 Xrotation Yrotation Zrotation
						End Site
						{
							OFFSET 0.000000 12.319244 0.000000
						}
					}
					JOINT RFootTongue
					{
						OFFSET -1.142200 -1.059800 6.665200
						CHANNELS 3 Xrotation Yrotation Zrotation
						End Site
						{
							OFFSET 0.000000 12.319243 0.000000
						}
					}
				}
				JOINT RightPantLeg
				{
					OFFSET -0.919482 -16.533978 -2.284800
					CHANNELS 3 Xrotation Yrotation Zrotation
					End Site
					{
						OFFSET -0.350400 24.744419 0.000000
					}
				}
			}
		}
	}
	JOINT Spine
	{
		OFFSET 0.000000 7.722000 1.166200
		CHANNELS 3 Xrotation Yrotation Zrotation
		JOINT Spine1
		{
			OFFSET 0.000000 12.024101 0.248800
			CHANNELS 3 Xrotation Yrotation Zrotation
			JOINT Spine2
			{
				OFFSET 0.000000 11.502998 -0.491200
				CHANNELS 3 Xrotation Yrotation Zrotation
				JOINT Neck
				{
					OFFSET 0.000000 18.430702 -3.123100
					CHANNELS 3 Xrotation Yrotation Zrotation
					JOINT Head
					{
						OFFSET 0.000000 9.051102 1.034000
						CHANNELS 3 Xrotation Yrotation Zrotation
						JOINT HairB
						{
							OFFSET 0.208400 24.786102 24.822300
							CHANNELS 3 Xrotation Yrotation Zrotation
							End Site
							{
								OFFSET 0.000000 32.263779 0.000000
							}
						}
						JOINT HairA
						{
							OFFSET -7.081100 24.428299 23.196600
							CHANNELS 3 Xrotation Yrotation Zrotation
							End Site
							{
								OFFSET 0.000000 32.263779 0.000000
							}
						}
						JOINT Hat
						{
							OFFSET 16.728800 15.048294 -15.439601
							CHANNELS 3 Xrotation Yrotation Zrotation
							End Site
							{
								OFFSET 0.000000 32.263779 0.000000
							}
						}
					}
				}
				JOINT LeftShoulder
				{
					OFFSET 6.197800 13.665199 -4.064700
					CHANNELS 3 Xrotation Yrotation Zrotation
					JOINT LeftArm
					{
						OFFSET 7.778100 -0.187103 -1.709300
						CHANNELS 3 Xrotation Yrotation Zrotation
						JOINT LeftForeArm
						{
							OFFSET 22.049376 0.000000 0.000000
							CHANNELS 3 Xrotation Yrotation Zrotation
							JOINT LeftHand
							{
								OFFSET 23.009392 0.000000 0.000000
								CHANNELS 3 Xrotation Yrotation Zrotation
								JOINT LeftHandThumb1
								{
									OFFSET 3.507191 -2.063065 3.133727
									CHANNELS 3 Xrotation Yrotation Zrotation
									JOINT LeftHandThumb2
									{
										OFFSET 3.101337 -1.790558 1.790558
										CHANNELS 3 Xrotation Yrotation Zrotation
										JOINT LeftHandThumb3
										{
											OFFSET 3.058640 -1.765907 1.765906
											CHANNELS 3 Xrotation Yrotation Zrotation
											End Site
											{
												OFFSET -0.415260 3.926476 -0.049563
											}
										}
									}
								}
								JOINT LeftHandIndex1
								{
									OFFSET 11.334419 -0.901459 3.706815
									CHANNELS 3 Xrotation Yrotation Zrotation
									JOINT LeftHandIndex2
									{
										OFFSET 3.283112 0.000000 0.000000
										CHANNELS 3 Xrotation Yrotation Zrotation
										JOINT LeftHandIndex3
										{
											OFFSET 3.323853 0.000000 0.000000
											CHANNELS 3 Xrotation Yrotation Zrotation
											End Site
											{
												OFFSET -1.135597 3.097809 0.402452
											}
										}
									}
								}
								JOINT LeftHandMiddle1
								{
									OFFSET 11.335861 0.000000 0.000000
									CHANNELS 3 Xrotation Yrotation Zrotation
									JOINT LeftHandMiddle2
									{
										OFFSET 3.410492 0.000000 0.000000
										CHANNELS 3 Xrotation Yrotation Zrotation
										JOINT LeftHandMiddle3
										{
											OFFSET 3.312172 0.000000 0.000000
											CHANNELS 3 Xrotation Yrotation Zrotation
											End Site
											{
												OFFSET -1.150200 3.080154 0.400270
											}
										}
									}
								}
								JOINT LeftHandRing1
								{
									OFFSET 11.514786 -0.013176 -3.003090
									CHANNELS 3 Xrotation Yrotation Zrotation
									JOINT LeftHandRing2
									{
										OFFSET 3.053307 0.000000 0.000000
										CHANNELS 3 Xrotation Yrotation Zrotation
										JOINT LeftHandRing3
										{
											OFFSET 3.295807 0.000000 0.000000
											CHANNELS 3 Xrotation Yrotation Zrotation
											End Site
											{
												OFFSET -1.281006 3.013344 0.375733
											}
										}
									}
								}
								JOINT LeftHandPinky1
								{
									OFFSET 10.518692 -0.960396 -5.730441
									CHANNELS 3 Xrotation Yrotation Zrotation
									JOINT LeftHandPinky2
									{
										OFFSET 2.861649 0.000000 0.000000
										CHANNELS 3 Xrotation Yrotation Zrotation
										JOINT LeftHandPinky3
										{
											OFFSET 2.863380 0.000000 0.000000
											CHANNELS 3 Xrotation Yrotation Zrotation
											End Site
											{
												OFFSET -0.843597 2.711159 0.369971
											}
										}
									}
								}
							}
							JOINT LSleeve
							{
								OFFSET 6.676277 -0.344902 -1.011730
								CHANNELS 3 Xrotation Yrotation Zrotation
								End Site
								{
									OFFSET 0.000000 14.885353 0.000000
								}
							}
						}
					}
				}
				JOINT RightShoulder
				{
					OFFSET -6.197800 13.665199 -4.064700
					CHANNELS 3 Xrotation Yrotation Zrotation
					JOINT RightArm
					{
						OFFSET -7.778100 -0.187103 -1.709300
						CHANNELS 3 Xrotation Yrotation Zrotation
						JOINT RightForeArm
						{
							OFFSET -22.049376 0.000000 0.000000
							CHANNELS 3 Xrotation Yrotation Zrotation
							JOINT RightHand
							{
								OFFSET -23.009392 0.000000 0.000000
								CHANNELS 3 Xrotation Yrotation Zrotation
								JOINT RightHandThumb1
								{
									OFFSET -3.507191 -2.063065 3.133727
									CHANNELS 3 Xrotation Yrotation Zrotation
									JOINT RightHandThumb2
									{
										OFFSET -3.101337 -1.790558 1.790558
										CHANNELS 3 Xrotation Yrotation Zrotation
										JOINT RightHandThumb3
										{
											OFFSET -3.058640 -1.765907 1.765906
											CHANNELS 3 Xrotation Yrotation Zrotation
											End Site
											{
												OFFSET 0.415260 3.926476 -0.049563
											}
										}
									}
								}
								JOINT RightHandIndex1
								{
									OFFSET -11.334419 -0.901459 3.706815
									CHANNELS 3 Xrotation Yrotation Zrotation
									JOINT RightHandIndex2
									{
										OFFSET -3.283112 0.000000 0.000000
										CHANNELS 3 Xrotation Yrotation Zrotation
										JOINT RightHandIndex3
										{
											OFFSET -3.323853 0.000000 0.000000
											CHANNELS 3 Xrotation Yrotation Zrotation
											End Site
											{
												OFFSET 1.135597 3.097809 0.402452
											}
										}
									}
								}
								JOINT RightHandMiddle1
								{
									OFFSET -11.335861 0.000000 0.000000
									CHANNELS 3 Xrotation Yrotation Zrotation
									JOINT RightHandMiddle2
									{
										OFFSET -3.410492 0.000000 0.000000
										CHANNELS 3 Xrotation Yrotation Zrotation
										JOINT RightHandMiddle3
										{
											OFFSET -3.312172 0.000000 0.000000
											CHANNELS 3 Xrotation Yrotation Zrotation
											End Site
											{
												OFFSET 1.150200 3.080154 0.400270
											}
										}
									}
								}
								JOINT RightHandRing1
								{
									OFFSET -11.514786 -0.013176 -3.003090
									CHANNELS 3 Xrotation Yrotation Zrotation
									JOINT RightHandRing2
									{
										OFFSET -3.053307 0.000000 0.000000
										CHANNELS 3 Xrotation Yrotation Zrotation
										JOINT RightHandRing3
										{
											OFFSET -3.295807 0.000000 0.000000
											CHANNELS 3 Xrotation Yrotation Zrotation
											End Site
											{
												OFFSET 1.281006 3.013344 0.375733
											}
										}
									}
								}
								JOINT RightHandPinky1
								{
									OFFSET -10.518692 -0.960396 -5.730441
									CHANNELS 3 Xrotation Yrotation Zrotation
									JOINT RightHandPinky2
									{
										OFFSET -2.861649 0.000000 0.000000
										CHANNELS 3 Xrotation Yrotation Zrotation
										JOINT RightHandPinky3
										{
											OFFSET -2.863380 0.000000 0.000000
											CHANNELS 3 Xrotation Yrotation Zrotation
											End Site
											{
												OFFSET 0.843597 2.711159 0.369971
											}
										}
									}
								}
							}
							JOINT RSleeve
							{
								OFFSET -6.676277 -0.344902 -1.011730
								CHANNELS 3 Xrotation Yrotation Zrotation
								End Site
								{
									OFFSET 0.000000 14.885353 0.000000
								}
							}
						}
					}
				}
				JOINT Backpack
				{
					OFFSET 0.000000 -2.471497 36.677502
					CHANNELS 3 Xrotation Yrotation Zrotation
					End Site
					{
						OFFSET 0.000000 20.427315 0.000000
					}
				}
				JOINT Hood
				{
					OFFSET 0.000000 18.754097 -10.431000
					CHANNELS 3 Xrotation Yrotation Zrotation
					JOINT Hood1
					{
						OFFSET 0.000000 -5.011002 -7.685901
						CHANNELS 3 Xrotation Yrotation Zrotation
						End Site
						{
							OFFSET 0.000000 9.175140 0.000000
						}
					}
				}
				JOINT LHoodieString
				{
					OFFSET 5.250500 16.397697 3.089900
					CHANNELS 3 Xrotation Yrotation Zrotation
					JOINT LHoodieString1
					{
						OFFSET 0.257700 -6.364304 3.694600
						CHANNELS 3 Xrotation Yrotation Zrotation
						JOINT LHoodieString2
						{
							OFFSET 0.000000 -9.643799 2.679100
							CHANNELS 3 Xrotation Yrotation Zrotation
							End Site
							{
								OFFSET 0.000000 10.009018 0.000000
							}
						}
					}
				}
				JOINT RHoodieString
				{
					OFFSET -5.250500 16.397697 3.089900
					CHANNELS 3 Xrotation Yrotation Zrotation
					JOINT RHoodieString1
					{
						OFFSET -0.257700 -6.364304 3.694600
						CHANNELS 3 Xrotation Yrotation Zrotation
						JOINT RHoodieString2
						{
							OFFSET 0.000000 -9.643799 2.679100
							CHANNELS 3 Xrotation Yrotation Zrotation
							End Site
							{
								OFFSET 0.000000 10.009018 0.000000
							}
						}
					}
				}
			}
			JOINT LBackpack_Strap
			{
				OFFSET 15.223200 -7.719803 -6.610900
				CHANNELS 3 Xrotation Yrotation Zrotation
				End Site
				{
					OFFSET 0.000000 16.040596 0.000000
				}
			}
			JOINT RBackpack_Strap
			{
				OFFSET -15.223000 -7.719803 -6.610900
				CHANNELS 3 Xrotation Yrotation Zrotation
				End Site
				{
					OFFSET 0.000000 16.040596 0.000000
				}
			}
		}
	}
	JOINT BoyFacialAnim_Joint
	{
		OFFSET 1.000000 -82.208099 -1.550900
		CHANNELS 3 Xrotation Yrotation Zrotation
		End Site
		{
			OFFSET 0.000000 30.012791 0.000000
		}
	}
}
MOTION
Frames: 4
Frame Time: 0.016667
0.100036 75.598503 1.158981 5.451842 2.998785 -3.771987 0.000000 -0.000000 -0.000000 -45.365194 5.537123 -0.719156 99.220287 13.514823 3.912690 -8.455290 -0.898363 6.597725 -0.000003 -0.000001 -0.000000 -0.000003 -0.000001 -0.000000 0.000001 -0.000000 0.000000 -21.007816 -6.053361 4.836991 50.170209 -0.215889 -1.611184 -25.549670 0.472869 -1.441881 -0.000001 -0.000000 0.000000 -0.000001 -0.000000 0.000000 -0.000000 0.000000 -0.000000 4.908917 1.321234 2.147382 9.857122 2.800250 1.722123 9.857132 2.800251 1.722122 -7.496574 -3.144982 -0.434788 -14.101446 -7.360288 -5.253898 0.000001 0.000000 -0.000000 0.000001 0.000000 -0.000000 0.000001 0.000000 -0.000000 1.084057 -1.226539 -9.108710 21.951214 16.129905 -69.744605 5.201953 -103.989862 -6.123327 11.822899 -20.243286 2.841623 -3.690112 -7.086982 -6.632112 5.385716 13.659125 2.745864 -0.000001 0.000002 -0.000002 -4.456503 -5.493644 -78.091861 -6.126690 -4.185986 -86.100292 0.000000 -0.000002 -0.000005 -4.795445 -3.750246 -81.576931 -5.123574 -5.382120 -79.877560 -0.000002 -0.000000 -0.000002 -3.664373 4.578283 -85.637410 -3.073153 -4.292452 -82.602983 -0.000000 -0.000001 -0.000000 -3.281156 10.951578 -91.300580 -1.701502 -6.201345 -92.126589 0.000000 0.000003 -0.000002 0.000000 -0.000002 0.000001 0.776470 6.054087 9.529805 5.506726 -10.523602 55.529301 -70.896715 86.710454 75.613732 -0.541032 5.793773 2.436045 1.190251 2.334530 7.237252 4.255928 -11.098842 -2.566634 0.000002 0.000004 -0.000001 3.425552 2.971795 72.847144 -5.590513 2.959988 92.129020 0.000001 0.000002 0.000005 -2.182818 2.038035 78.119066 -4.717962 4.324967 85.933110 0.000001 -0.000003 0.000003 -3.544736 -3.138614 85.503347 -4.845220 5.681182 88.623351 -0.000001 -0.000003 0.000002 -4.116714 -7.840865 98.141492 -5.448567 9.316726 98.222341 0.000000 0.000000 -0.000001 -0.000001 0.000002 -0.000001 0.000003 -0.000001 -0.000000 0.000003 -0.000001 -0.000000 0.000003 -0.000001 -0.000000 0.000003 -0.000001 -0.000000 0.000003 -0.000001 -0.000001 0.000002 0.000000 -0.000000 0.000003 -0.000001 -0.000000 0.000003 -0.000001 -0.000001 0.000002 0.000000 -0.000000 -0.000000 -0.000000 0.000000 -0.000000 -0.000000 0.000000 0.000000 -0.000000 -0.000000 
0.654053 76.638336 9.411603 3.090230 0.566485 -0.537452 0.000000 -0.000000 -0.000000 -53.173067 3.911540 -0.994147 94.351748 13.925604 4.008570 -0.574101 -0.682161 8.211863 0.000002 -0.000001 -0.000001 0.000002 -0.000001 -0.000001 -0.000001 0.000000 -0.000000 -13.001273 -5.128087 1.709892 49.396174 1.156381 -3.271725 -18.457299 0.475952 -0.361977 0.000002 -0.000000 0.000000 0.000002 -0.000000 0.000000 -0.000003 -0.000000 -0.000000 4.779518 1.620200 1.420677 9.626594 3.123980 0.274439 9.626595 3.123981 0.274439 -2.454933 -3.325483 -1.544303 -13.137935 -8.242274 -5.177376 0.000000 0.000000 -0.000000 0.000000 0.000000 -0.000000 0.000000 0.000000 -0.000000 1.017758 -3.352019 -7.689895 20.366311 21.388597 -69.829457 3.146456 -98.519837 -7.265843 11.665510 -20.398008 3.541821 -3.674524 -7.031702 -6.573697 5.390392 13.668762 2.745667 -0.000003 -0.000000 0.000001 -4.415719 -5.486223 -77.672618 -6.076173 -4.184094 -85.682230 0.000001 -0.000001 -0.000004 -4.761751 -3.747131 -81.225067 -5.085665 -5.375457 -79.524787 0.000000 -0.000002 -0.000002 -3.642437 4.581596 -85.331828 -3.053928 -4.287321 -82.294046 -0.000000 0.000001 -0.000000 -3.262906 10.951623 -90.969391 -1.695734 -6.201267 -91.857691 -0.000000 -0.000001 -0.000002 -0.000000 0.000002 -0.000000 0.471244 6.581693 7.077384 2.677238 -8.531775 52.506335 -124.821256 83.187367 129.906305 0.046012 8.442200 -4.547151 1.063722 2.389930 7.088556 4.210547 -10.996078 -2.558749 0.000000 0.000000 0.000001 3.285709 2.958046 72.384487 -5.532253 2.967138 91.535053 0.000001 -0.000000 0.000002 -2.157703 2.014425 77.565384 -4.667184 4.322076 85.362236 -0.000001 0.000001 0.000002 -3.433796 -3.143527 84.861385 -4.797947 5.679365 88.073998 0.000001 -0.000003 0.000003 -3.951832 -7.817779 97.410758 -5.399211 9.319770 97.590863 0.000001 0.000002 -0.000003 0.000002 -0.000001 -0.000001 0.000001 -0.000001 0.000000 0.000001 -0.000001 0.000000 0.000001 -0.000001 0.000000 0.000001 -0.000001 0.000000 0.000001 -0.000001 0.000000 0.000001 0.000000 -0.000000 0.000001 -0.000001 0.000000 0.000001 -0.000001 0.000000 0.000001 0.000000 -0.000000 -0.000001 0.000000 0.000000 -0.000001 0.000000 0.000000 0.000000 -0.000000 -0.000000 
1.183303 77.222321 17.678459 0.121389 -1.659848 2.944974 -0.000000 -0.000000 -0.000000 -57.510206 2.189853 -2.559770 87.734640 15.053342 4.130710 4.717983 -0.454966 8.667389 -0.000004 0.000000 -0.000000 -0.000004 0.000000 0.000000 0.000002 0.000000 0.000001 -7.238133 -4.017160 -2.966024 50.116045 2.272589 -4.058306 -0.443668 0.636978 2.209800 -0.000001 -0.000000 0.000000 -0.000001 -0.000000 0.000000 -0.000005 -0.000000 0.000000 4.710000 1.743415 0.446869 9.488552 3.163840 -0.986325 9.488544 3.163838 -0.986325 2.602472 -3.411513 -2.577497 -12.199128 -8.439068 -5.062701 0.000001 -0.000000 -0.000000 0.000001 -0.000000 -0.000000 0.000001 -0.000000 -0.000000 0.950474 -5.646694 -7.066023 19.644690 26.553699 -68.303408 -44.943468 -91.993304 -56.509570 12.433743 -20.263211 4.153207 -3.631277 -6.892553 -6.427396 5.402865 13.694226 2.745126 -0.000001 -0.000002 0.000000 -4.314012 -5.463028 -76.623029 -5.949251 -4.173837 -84.635729 -0.000003 -0.000002 0.000001 -4.676680 -3.733394 -80.346302 -4.991181 -5.357315 -78.643809 -0.000001 -0.000002 0.000007 -3.588962 4.586332 -84.569988 -3.007750 -4.280713 -81.524052 0.000004 0.000002 0.000002 -3.217723 10.951121 -90.145048 -1.681569 -6.201960 -91.189268 -0.000000 0.000005 0.000002 0.000002 -0.000001 -0.000002 0.215433 7.052325 4.417729 -0.696332 -7.601970 49.506611 -136.723667 80.118372 141.096163 -1.682963 8.719118 -8.099251 0.735796 2.516785 6.699286 4.098474 -10.742291 -2.538914 0.000000 0.000001 -0.000001 2.946262 2.950492 71.140641 -5.372429 2.971017 89.955217 -0.000002 0.000000 0.000004 -2.097271 1.952041 76.105390 -4.531259 4.309431 83.837539 0.000001 0.000001 -0.000003 -3.153776 -3.176347 83.187203 -4.671689 5.673732 86.598398 0.000001 0.000002 0.000001 -3.529643 -7.793265 95.484221 -5.273499 9.333565 95.921551 -0.000001 -0.000002 -0.000002 0.000001 0.000001 -0.000000 -0.000001 0.000001 0.000000 -0.000001 0.000001 0.000000 -0.000001 0.000001 0.000000 -0.000001 0.000001 0.000000 -0.000001 0.000001 0.000000 -0.000001 0.000000 0.000000 -0.000001 0.000001 0.000000 -0.000001 0.000001 0.000000 -0.000001 0.000000 0.000000 0.000000 0.000000 0.000000 0.000000 0.000000 0.000000 -0.000000 -0.000000 -0.000000 
1.596923 77.003716 25.301832 -3.223246 -4.363966 6.150382 -0.000000 -0.000000 0.000000 -59.677193 0.676885 -4.356234 80.169516 17.912408 4.740377 6.821413 -0.389891 8.415447 0.000000 0.000000 0.000001 0.000000 0.000000 0.000001 -0.000002 -0.000001 0.000001 -5.019659 -0.558892 -7.708971 53.768216 2.750355 -4.489660 22.146132 0.668120 -0.520491 -0.000001 0.000000 0.000000 -0.000001 0.000000 0.000000 -0.000002 0.000000 0.000000 4.899175 1.846633 -0.919728 9.838375 3.169748 -2.175855 9.838367 3.169750 -2.175855 7.329075 -3.470431 -3.521876 -11.394775 -8.119054 -4.996078 0.000003 0.000000 0.000001 0.000003 0.000000 0.000001 0.000003 0.000000 0.000001 0.873607 -7.727236 -6.705415 19.528653 31.328216 -66.134072 -131.666704 -98.266744 -145.355960 13.514977 -20.043412 4.561853 -3.569435 -6.695147 -6.222071 5.420910 13.731096 2.744336 0.000001 -0.000002 -0.000001 -4.171554 -5.426537 -75.144184 -5.770785 -4.154582 -83.161057 -0.000002 -0.000002 -0.000002 -4.557129 -3.710893 -79.109327 -4.858675 -5.329162 -77.403652 -0.000000 0.000002 0.000002 -3.514140 4.593326 -83.498468 -2.943339 -4.271660 -80.441078 -0.000002 0.000004 -0.000003 -3.154235 10.951195 -88.986232 -1.661708 -6.202845 -90.250240 -0.000000 -0.000000 -0.000002 -0.000000 0.000002 -0.000002 -0.010818 7.405824 1.517427 -3.959894 -7.479178 46.796689 -143.758243 76.454808 146.944785 -4.558722 7.638983 -9.646812 0.277055 2.694361 6.152297 3.942601 -10.389846 -2.510528 0.000002 0.000000 0.000002 2.483113 2.965511 69.371404 -5.146204 2.966093 87.716759 -0.000002 0.000001 0.000002 -2.014721 1.861854 74.039708 -4.339293 4.284724 81.675026 -0.000001 -0.000000 0.000003 -2.765299 -3.243725 80.825105 -4.492718 5.660384 84.502882 -0.000000 -0.000000 0.000000 -2.938761 -7.797504 92.760881 -5.095210 9.348741 93.559276 0.000003 0.000000 -0.000001 -0.000001 -0.000000 -0.000000 0.000000 0.000000 -0.000000 0.000000 0.000000 -0.000000 0.000000 0.000000 -0.000000 0.000000 0.000000 -0.000000 0.000000 0.000000 0.000000 -0.000002 0.000000 0.000000 0.000000 0.000000 -0.000000 0.000000 0.000000 0.000000 -0.000002 0.000000 0.000000 -0.000000 0.000000 0.000000 -0.000000 0.000000 0.000000 -0.000000 -0.000000 0.000000 
